<svg width="104" height="104" viewBox="0 0 104 104" fill="none" xmlns="http://www.w3.org/2000/svg">
<rect width="104" height="104" rx="52" fill="white"/>
<mask id="path-2-outside-1_309_917" maskUnits="userSpaceOnUse" x="19.814" y="21.75" width="61" height="61" fill="black">
<rect fill="white" x="19.814" y="21.75" width="61" height="61"/>
<path d="M47.1365 22.5097C40.4765 23.3702 34.7347 26.1959 30.1436 30.8937C28.6908 32.3705 27.912 33.3356 26.773 35.0682C25.1457 37.5102 23.8556 40.4405 23.135 43.3243C22.4841 45.9174 22.333 47.2779 22.3446 50.4176C22.3446 52.8595 22.6119 57.5341 22.7979 58.5573C22.856 58.8713 22.8211 58.9294 22.4725 59.1039C21.8564 59.3946 21.4031 59.8248 21.1242 60.4062C20.5779 61.4877 20.5779 61.4412 22.5887 70.3833C24.6576 79.6045 24.5878 79.4068 25.7385 80.0929C26.6219 80.6278 27.1681 80.6743 28.6443 80.372C29.5741 80.1743 29.8763 80.1394 29.9228 80.2557C30.0274 80.5697 30.7945 81.2906 31.2595 81.5115C31.9917 81.872 33.0261 81.8255 35.1183 81.3604C37.1291 80.9069 37.3964 80.7906 38.0008 80.1278C38.5819 79.4882 38.7795 78.9766 38.7795 78.1742C38.7795 77.3137 34.2349 56.9759 33.8979 56.3131C33.5608 55.6619 32.7937 55.034 32.0266 54.813C31.457 54.6502 31.2943 54.6502 30.4923 54.8014L29.609 54.9642L29.5044 53.8595C29.33 51.8013 29.3998 47.5105 29.6206 46.3244C30.7597 40.2428 34.3047 35.1729 39.6164 31.9868C43.2312 29.8239 47.8106 28.7541 52.0414 29.0797C59.7591 29.6611 66.4191 34.1147 69.6851 40.8824C71.3937 44.4174 71.9051 47.3477 71.661 52.1618C71.5913 53.627 71.5099 54.8596 71.4867 54.9061C71.4518 54.941 71.0334 54.8944 70.5336 54.8014C69.72 54.6502 69.5689 54.6502 68.9878 54.813C68.2206 55.034 67.4535 55.6619 67.1164 56.3131C66.7794 56.9759 62.2348 77.3137 62.2348 78.1742C62.2348 78.9417 62.4324 79.465 62.9322 80.0464C63.5366 80.7208 63.9782 80.9185 65.8844 81.3487C68.023 81.8255 69.0226 81.872 69.7549 81.5115C70.2198 81.2906 70.9869 80.5697 71.0915 80.2557C71.138 80.1394 71.4402 80.1743 72.37 80.372C73.8462 80.6743 74.3925 80.6278 75.2758 80.0929C76.4149 79.4068 76.3684 79.5812 78.3791 70.674C80.3783 61.8016 80.4364 61.4412 79.9018 60.4179C79.6344 59.9062 79.1114 59.3946 78.4605 59.0225C78.2862 58.9178 78.2745 58.7899 78.3908 57.6271C78.8441 52.906 78.8557 47.8826 78.4024 45.3593C76.5543 34.9054 68.8367 26.4168 58.4689 23.4167C55.9467 22.6958 54.0638 22.4283 51.0302 22.3818C49.2402 22.3585 47.9617 22.3934 47.1365 22.5097ZM53.9592 24.0214C64.1991 25.3586 72.6722 32.1844 75.9267 41.6964C77.3098 45.7895 77.5655 49.3012 76.996 56.5224C76.8333 58.6039 76.8333 58.6039 76.3451 58.4759C76.0197 58.3945 75.9616 58.3248 75.9616 58.0341C75.9616 57.0922 74.9271 55.8596 73.8578 55.5456C73.5207 55.441 73.172 55.3596 73.0907 55.3596C72.9628 55.3596 72.9396 55.2084 72.9861 54.6851C73.1488 52.906 73.1837 52.2199 73.172 50.0687C73.172 48.5803 73.1139 47.3244 72.9977 46.5919C72.4514 43.022 71.0334 39.58 68.9064 36.6962C67.8719 35.3008 65.3497 32.8124 63.9899 31.8472C60.8749 29.6378 57.4461 28.2657 53.7267 27.7424C52.146 27.5215 48.9962 27.5215 47.3573 27.7541C37.8962 29.0681 30.1669 36.2194 28.3188 45.3244C27.819 47.7663 27.7609 49.4989 28.0399 54.1037C28.098 55.1619 28.0864 55.3596 27.9353 55.3596C27.8423 55.3596 27.5052 55.441 27.1798 55.534C26.1221 55.848 25.0528 57.0922 25.0528 58.0224C25.0528 58.3597 24.89 58.4992 24.4832 58.4992C24.3089 58.4992 24.2624 58.3597 24.2043 57.7782C23.9718 55.4526 23.8556 52.9874 23.844 50.4176C23.8323 47.2082 23.9602 46.1267 24.6111 43.5569C26.773 35.1148 33.3748 28.068 41.8015 25.2424C43.6496 24.6261 46.0207 24.1028 47.8339 23.9284C49.0543 23.8004 52.7155 23.8586 53.9592 24.0214ZM31.9917 56.4061C32.2009 56.5224 32.445 56.7433 32.538 56.8945C32.631 57.0457 33.7584 61.9063 35.0602 67.6972L37.408 78.2324L37.1872 78.6742C37.071 78.9184 36.8385 79.2208 36.6758 79.3371C36.269 79.6278 32.7821 80.3952 32.2823 80.3022C32.0731 80.2673 31.736 80.0929 31.5384 79.9068C31.1316 79.5464 31.3757 80.558 28.1329 65.9878L26.4127 58.2899L26.6335 57.848C26.7613 57.6038 26.9822 57.3131 27.1449 57.1968C27.4355 56.9875 30.6318 56.1968 31.2711 56.1852C31.4687 56.1735 31.7825 56.2782 31.9917 56.4061ZM71.754 56.5805C72.7536 56.8015 73.7067 57.0806 73.8694 57.1968C74.0321 57.3131 74.253 57.6038 74.3808 57.848L74.6017 58.2899L72.8931 65.9297C69.5457 80.9418 69.8827 79.5464 69.4759 79.9068C69.2783 80.0813 68.9413 80.2673 68.732 80.3022C68.2323 80.3952 64.7453 79.6278 64.3385 79.3371C64.1758 79.2208 63.9434 78.9184 63.8271 78.6742L63.6063 78.2324L65.9541 67.6972C67.2559 61.9063 68.3834 57.0457 68.4763 56.8945C68.6972 56.5573 69.3132 56.1735 69.6619 56.1735C69.813 56.1735 70.7544 56.3596 71.754 56.5805ZM25.3201 60.2086C25.355 60.3946 26.2848 64.5343 27.3774 69.4298C28.4699 74.3253 29.3765 78.4068 29.3881 78.4998C29.4114 78.6742 28.1212 79.058 27.4006 79.0696C26.8892 79.0812 26.2848 78.7905 26.0407 78.4184C25.8315 78.1045 22.2632 62.3482 22.2632 61.7435C22.2632 61.29 22.6236 60.6853 23.0071 60.4876C23.2512 60.3481 24.7622 59.9411 25.1225 59.9062C25.1922 59.8946 25.2852 60.0341 25.3201 60.2086ZM76.8682 60.1272C77.4028 60.2551 77.9491 60.4411 78.0769 60.5341C78.4605 60.79 78.7511 61.3132 78.7511 61.7319C78.7511 62.3249 75.1828 78.1045 74.9736 78.4184C74.7295 78.7905 74.1251 79.0812 73.6137 79.0696C72.8931 79.058 71.6029 78.6742 71.6262 78.4998C71.6378 78.4068 72.5444 74.3253 73.637 69.4298C74.7295 64.5343 75.6594 60.3946 75.6942 60.2086C75.7291 60.0341 75.7872 59.8946 75.8337 59.8946C75.8686 59.8946 76.3451 59.9992 76.8682 60.1272Z"/>
</mask>
<path d="M47.1365 22.5097C40.4765 23.3702 34.7347 26.1959 30.1436 30.8937C28.6908 32.3705 27.912 33.3356 26.773 35.0682C25.1457 37.5102 23.8556 40.4405 23.135 43.3243C22.4841 45.9174 22.333 47.2779 22.3446 50.4176C22.3446 52.8595 22.6119 57.5341 22.7979 58.5573C22.856 58.8713 22.8211 58.9294 22.4725 59.1039C21.8564 59.3946 21.4031 59.8248 21.1242 60.4062C20.5779 61.4877 20.5779 61.4412 22.5887 70.3833C24.6576 79.6045 24.5878 79.4068 25.7385 80.0929C26.6219 80.6278 27.1681 80.6743 28.6443 80.372C29.5741 80.1743 29.8763 80.1394 29.9228 80.2557C30.0274 80.5697 30.7945 81.2906 31.2595 81.5115C31.9917 81.872 33.0261 81.8255 35.1183 81.3604C37.1291 80.9069 37.3964 80.7906 38.0008 80.1278C38.5819 79.4882 38.7795 78.9766 38.7795 78.1742C38.7795 77.3137 34.2349 56.9759 33.8979 56.3131C33.5608 55.6619 32.7937 55.034 32.0266 54.813C31.457 54.6502 31.2943 54.6502 30.4923 54.8014L29.609 54.9642L29.5044 53.8595C29.33 51.8013 29.3998 47.5105 29.6206 46.3244C30.7597 40.2428 34.3047 35.1729 39.6164 31.9868C43.2312 29.8239 47.8106 28.7541 52.0414 29.0797C59.7591 29.6611 66.4191 34.1147 69.6851 40.8824C71.3937 44.4174 71.9051 47.3477 71.661 52.1618C71.5913 53.627 71.5099 54.8596 71.4867 54.9061C71.4518 54.941 71.0334 54.8944 70.5336 54.8014C69.72 54.6502 69.5689 54.6502 68.9878 54.813C68.2206 55.034 67.4535 55.6619 67.1164 56.3131C66.7794 56.9759 62.2348 77.3137 62.2348 78.1742C62.2348 78.9417 62.4324 79.465 62.9322 80.0464C63.5366 80.7208 63.9782 80.9185 65.8844 81.3487C68.023 81.8255 69.0226 81.872 69.7549 81.5115C70.2198 81.2906 70.9869 80.5697 71.0915 80.2557C71.138 80.1394 71.4402 80.1743 72.37 80.372C73.8462 80.6743 74.3925 80.6278 75.2758 80.0929C76.4149 79.4068 76.3684 79.5812 78.3791 70.674C80.3783 61.8016 80.4364 61.4412 79.9018 60.4179C79.6344 59.9062 79.1114 59.3946 78.4605 59.0225C78.2862 58.9178 78.2745 58.7899 78.3908 57.6271C78.8441 52.906 78.8557 47.8826 78.4024 45.3593C76.5543 34.9054 68.8367 26.4168 58.4689 23.4167C55.9467 22.6958 54.0638 22.4283 51.0302 22.3818C49.2402 22.3585 47.9617 22.3934 47.1365 22.5097ZM53.9592 24.0214C64.1991 25.3586 72.6722 32.1844 75.9267 41.6964C77.3098 45.7895 77.5655 49.3012 76.996 56.5224C76.8333 58.6039 76.8333 58.6039 76.3451 58.4759C76.0197 58.3945 75.9616 58.3248 75.9616 58.0341C75.9616 57.0922 74.9271 55.8596 73.8578 55.5456C73.5207 55.441 73.172 55.3596 73.0907 55.3596C72.9628 55.3596 72.9396 55.2084 72.9861 54.6851C73.1488 52.906 73.1837 52.2199 73.172 50.0687C73.172 48.5803 73.1139 47.3244 72.9977 46.5919C72.4514 43.022 71.0334 39.58 68.9064 36.6962C67.8719 35.3008 65.3497 32.8124 63.9899 31.8472C60.8749 29.6378 57.4461 28.2657 53.7267 27.7424C52.146 27.5215 48.9962 27.5215 47.3573 27.7541C37.8962 29.0681 30.1669 36.2194 28.3188 45.3244C27.819 47.7663 27.7609 49.4989 28.0399 54.1037C28.098 55.1619 28.0864 55.3596 27.9353 55.3596C27.8423 55.3596 27.5052 55.441 27.1798 55.534C26.1221 55.848 25.0528 57.0922 25.0528 58.0224C25.0528 58.3597 24.89 58.4992 24.4832 58.4992C24.3089 58.4992 24.2624 58.3597 24.2043 57.7782C23.9718 55.4526 23.8556 52.9874 23.844 50.4176C23.8323 47.2082 23.9602 46.1267 24.6111 43.5569C26.773 35.1148 33.3748 28.068 41.8015 25.2424C43.6496 24.6261 46.0207 24.1028 47.8339 23.9284C49.0543 23.8004 52.7155 23.8586 53.9592 24.0214ZM31.9917 56.4061C32.2009 56.5224 32.445 56.7433 32.538 56.8945C32.631 57.0457 33.7584 61.9063 35.0602 67.6972L37.408 78.2324L37.1872 78.6742C37.071 78.9184 36.8385 79.2208 36.6758 79.3371C36.269 79.6278 32.7821 80.3952 32.2823 80.3022C32.0731 80.2673 31.736 80.0929 31.5384 79.9068C31.1316 79.5464 31.3757 80.558 28.1329 65.9878L26.4127 58.2899L26.6335 57.848C26.7613 57.6038 26.9822 57.3131 27.1449 57.1968C27.4355 56.9875 30.6318 56.1968 31.2711 56.1852C31.4687 56.1735 31.7825 56.2782 31.9917 56.4061ZM71.754 56.5805C72.7536 56.8015 73.7067 57.0806 73.8694 57.1968C74.0321 57.3131 74.253 57.6038 74.3808 57.848L74.6017 58.2899L72.8931 65.9297C69.5457 80.9418 69.8827 79.5464 69.4759 79.9068C69.2783 80.0813 68.9413 80.2673 68.732 80.3022C68.2323 80.3952 64.7453 79.6278 64.3385 79.3371C64.1758 79.2208 63.9434 78.9184 63.8271 78.6742L63.6063 78.2324L65.9541 67.6972C67.2559 61.9063 68.3834 57.0457 68.4763 56.8945C68.6972 56.5573 69.3132 56.1735 69.6619 56.1735C69.813 56.1735 70.7544 56.3596 71.754 56.5805ZM25.3201 60.2086C25.355 60.3946 26.2848 64.5343 27.3774 69.4298C28.4699 74.3253 29.3765 78.4068 29.3881 78.4998C29.4114 78.6742 28.1212 79.058 27.4006 79.0696C26.8892 79.0812 26.2848 78.7905 26.0407 78.4184C25.8315 78.1045 22.2632 62.3482 22.2632 61.7435C22.2632 61.29 22.6236 60.6853 23.0071 60.4876C23.2512 60.3481 24.7622 59.9411 25.1225 59.9062C25.1922 59.8946 25.2852 60.0341 25.3201 60.2086ZM76.8682 60.1272C77.4028 60.2551 77.9491 60.4411 78.0769 60.5341C78.4605 60.79 78.7511 61.3132 78.7511 61.7319C78.7511 62.3249 75.1828 78.1045 74.9736 78.4184C74.7295 78.7905 74.1251 79.0812 73.6137 79.0696C72.8931 79.058 71.6029 78.6742 71.6262 78.4998C71.6378 78.4068 72.5444 74.3253 73.637 69.4298C74.7295 64.5343 75.6594 60.3946 75.6942 60.2086C75.7291 60.0341 75.7872 59.8946 75.8337 59.8946C75.8686 59.8946 76.3451 59.9992 76.8682 60.1272Z" fill="#8F8F8F"/>
<path d="M47.1365 22.5097C40.4765 23.3702 34.7347 26.1959 30.1436 30.8937C28.6908 32.3705 27.912 33.3356 26.773 35.0682C25.1457 37.5102 23.8556 40.4405 23.135 43.3243C22.4841 45.9174 22.333 47.2779 22.3446 50.4176C22.3446 52.8595 22.6119 57.5341 22.7979 58.5573C22.856 58.8713 22.8211 58.9294 22.4725 59.1039C21.8564 59.3946 21.4031 59.8248 21.1242 60.4062C20.5779 61.4877 20.5779 61.4412 22.5887 70.3833C24.6576 79.6045 24.5878 79.4068 25.7385 80.0929C26.6219 80.6278 27.1681 80.6743 28.6443 80.372C29.5741 80.1743 29.8763 80.1394 29.9228 80.2557C30.0274 80.5697 30.7945 81.2906 31.2595 81.5115C31.9917 81.872 33.0261 81.8255 35.1183 81.3604C37.1291 80.9069 37.3964 80.7906 38.0008 80.1278C38.5819 79.4882 38.7795 78.9766 38.7795 78.1742C38.7795 77.3137 34.2349 56.9759 33.8979 56.3131C33.5608 55.6619 32.7937 55.034 32.0266 54.813C31.457 54.6502 31.2943 54.6502 30.4923 54.8014L29.609 54.9642L29.5044 53.8595C29.33 51.8013 29.3998 47.5105 29.6206 46.3244C30.7597 40.2428 34.3047 35.1729 39.6164 31.9868C43.2312 29.8239 47.8106 28.7541 52.0414 29.0797C59.7591 29.6611 66.4191 34.1147 69.6851 40.8824C71.3937 44.4174 71.9051 47.3477 71.661 52.1618C71.5913 53.627 71.5099 54.8596 71.4867 54.9061C71.4518 54.941 71.0334 54.8944 70.5336 54.8014C69.72 54.6502 69.5689 54.6502 68.9878 54.813C68.2206 55.034 67.4535 55.6619 67.1164 56.3131C66.7794 56.9759 62.2348 77.3137 62.2348 78.1742C62.2348 78.9417 62.4324 79.465 62.9322 80.0464C63.5366 80.7208 63.9782 80.9185 65.8844 81.3487C68.023 81.8255 69.0226 81.872 69.7549 81.5115C70.2198 81.2906 70.9869 80.5697 71.0915 80.2557C71.138 80.1394 71.4402 80.1743 72.37 80.372C73.8462 80.6743 74.3925 80.6278 75.2758 80.0929C76.4149 79.4068 76.3684 79.5812 78.3791 70.674C80.3783 61.8016 80.4364 61.4412 79.9018 60.4179C79.6344 59.9062 79.1114 59.3946 78.4605 59.0225C78.2862 58.9178 78.2745 58.7899 78.3908 57.6271C78.8441 52.906 78.8557 47.8826 78.4024 45.3593C76.5543 34.9054 68.8367 26.4168 58.4689 23.4167C55.9467 22.6958 54.0638 22.4283 51.0302 22.3818C49.2402 22.3585 47.9617 22.3934 47.1365 22.5097ZM53.9592 24.0214C64.1991 25.3586 72.6722 32.1844 75.9267 41.6964C77.3098 45.7895 77.5655 49.3012 76.996 56.5224C76.8333 58.6039 76.8333 58.6039 76.3451 58.4759C76.0197 58.3945 75.9616 58.3248 75.9616 58.0341C75.9616 57.0922 74.9271 55.8596 73.8578 55.5456C73.5207 55.441 73.172 55.3596 73.0907 55.3596C72.9628 55.3596 72.9396 55.2084 72.9861 54.6851C73.1488 52.906 73.1837 52.2199 73.172 50.0687C73.172 48.5803 73.1139 47.3244 72.9977 46.5919C72.4514 43.022 71.0334 39.58 68.9064 36.6962C67.8719 35.3008 65.3497 32.8124 63.9899 31.8472C60.8749 29.6378 57.4461 28.2657 53.7267 27.7424C52.146 27.5215 48.9962 27.5215 47.3573 27.7541C37.8962 29.0681 30.1669 36.2194 28.3188 45.3244C27.819 47.7663 27.7609 49.4989 28.0399 54.1037C28.098 55.1619 28.0864 55.3596 27.9353 55.3596C27.8423 55.3596 27.5052 55.441 27.1798 55.534C26.1221 55.848 25.0528 57.0922 25.0528 58.0224C25.0528 58.3597 24.89 58.4992 24.4832 58.4992C24.3089 58.4992 24.2624 58.3597 24.2043 57.7782C23.9718 55.4526 23.8556 52.9874 23.844 50.4176C23.8323 47.2082 23.9602 46.1267 24.6111 43.5569C26.773 35.1148 33.3748 28.068 41.8015 25.2424C43.6496 24.6261 46.0207 24.1028 47.8339 23.9284C49.0543 23.8004 52.7155 23.8586 53.9592 24.0214ZM31.9917 56.4061C32.2009 56.5224 32.445 56.7433 32.538 56.8945C32.631 57.0457 33.7584 61.9063 35.0602 67.6972L37.408 78.2324L37.1872 78.6742C37.071 78.9184 36.8385 79.2208 36.6758 79.3371C36.269 79.6278 32.7821 80.3952 32.2823 80.3022C32.0731 80.2673 31.736 80.0929 31.5384 79.9068C31.1316 79.5464 31.3757 80.558 28.1329 65.9878L26.4127 58.2899L26.6335 57.848C26.7613 57.6038 26.9822 57.3131 27.1449 57.1968C27.4355 56.9875 30.6318 56.1968 31.2711 56.1852C31.4687 56.1735 31.7825 56.2782 31.9917 56.4061ZM71.754 56.5805C72.7536 56.8015 73.7067 57.0806 73.8694 57.1968C74.0321 57.3131 74.253 57.6038 74.3808 57.848L74.6017 58.2899L72.8931 65.9297C69.5457 80.9418 69.8827 79.5464 69.4759 79.9068C69.2783 80.0813 68.9413 80.2673 68.732 80.3022C68.2323 80.3952 64.7453 79.6278 64.3385 79.3371C64.1758 79.2208 63.9434 78.9184 63.8271 78.6742L63.6063 78.2324L65.9541 67.6972C67.2559 61.9063 68.3834 57.0457 68.4763 56.8945C68.6972 56.5573 69.3132 56.1735 69.6619 56.1735C69.813 56.1735 70.7544 56.3596 71.754 56.5805ZM25.3201 60.2086C25.355 60.3946 26.2848 64.5343 27.3774 69.4298C28.4699 74.3253 29.3765 78.4068 29.3881 78.4998C29.4114 78.6742 28.1212 79.058 27.4006 79.0696C26.8892 79.0812 26.2848 78.7905 26.0407 78.4184C25.8315 78.1045 22.2632 62.3482 22.2632 61.7435C22.2632 61.29 22.6236 60.6853 23.0071 60.4876C23.2512 60.3481 24.7622 59.9411 25.1225 59.9062C25.1922 59.8946 25.2852 60.0341 25.3201 60.2086ZM76.8682 60.1272C77.4028 60.2551 77.9491 60.4411 78.0769 60.5341C78.4605 60.79 78.7511 61.3132 78.7511 61.7319C78.7511 62.3249 75.1828 78.1045 74.9736 78.4184C74.7295 78.7905 74.1251 79.0812 73.6137 79.0696C72.8931 79.058 71.6029 78.6742 71.6262 78.4998C71.6378 78.4068 72.5444 74.3253 73.637 69.4298C74.7295 64.5343 75.6594 60.3946 75.6942 60.2086C75.7291 60.0341 75.7872 59.8946 75.8337 59.8946C75.8686 59.8946 76.3451 59.9992 76.8682 60.1272Z" stroke="#8F8F8F" stroke-width="0.25" mask="url(#path-2-outside-1_309_917)"/>
</svg>
