<svg width="24" height="24" viewBox="0 0 24 24" fill="none" xmlns="http://www.w3.org/2000/svg">
<path d="M1.63636 21.0022H5.45456V11.7295L2.95434 7.36365L0 7.63857V19.3659C0 20.2699 0.732281 21.0022 1.63636 21.0022Z" fill="#0085F7"/>
<path d="M18.5447 21.0022H22.3629C23.267 21.0022 23.9992 20.2699 23.9992 19.3659V7.63857L21.0492 7.36365L18.5447 11.7295V21.0022H18.5447Z" fill="#00A94B"/>
<path d="M18.5453 4.63856L16.3025 8.91839L18.5453 11.7295L23.9999 7.63856V5.45676C23.9999 3.43448 21.6912 2.27948 20.0726 3.49312L18.5453 4.63856Z" fill="#FFBC00"/>
<path fill-rule="evenodd" clip-rule="evenodd" d="M5.45407 11.7295L3.31689 7.21494L5.45407 4.63855L11.9995 9.54763L18.5449 4.63855V11.7295L11.9995 16.6386L5.45407 11.7295Z" fill="#FF4131"/>
<path d="M0 5.45676V7.63856L5.45456 11.7295V4.63856L3.92728 3.49312C2.30864 2.27948 0 3.43448 0 5.45676H0Z" fill="#E51C19"/>
</svg>
