<svg width="24" height="20" viewBox="0 0 24 20" fill="none" xmlns="http://www.w3.org/2000/svg">
<path d="M23.028 3.18075C22.3126 3.48789 21.5608 3.70229 20.791 3.81875C21.152 3.75775 21.68 3.10675 21.891 2.84375C22.2223 2.44366 22.4745 1.98414 22.634 1.48975C22.653 1.45075 22.667 1.40275 22.628 1.37275C22.609 1.36453 22.5883 1.36114 22.5677 1.36289C22.5471 1.36463 22.5273 1.37146 22.51 1.38275C21.6717 1.83006 20.7808 2.17103 19.858 2.39775C19.826 2.40776 19.7918 2.40847 19.7594 2.39979C19.727 2.39112 19.6977 2.37342 19.675 2.34875C19.6037 2.26407 19.5261 2.18484 19.443 2.11175C19.0594 1.78228 18.6252 1.51686 18.157 1.32575C17.5329 1.07202 16.8593 0.963287 16.187 1.00775C15.5338 1.05173 14.897 1.2312 14.317 1.53475C13.7359 1.83885 13.2229 2.25802 12.809 2.76675C12.3809 3.29368 12.0737 3.90813 11.909 4.56675C11.7699 5.191 11.7539 5.83639 11.862 6.46675C11.876 6.57375 11.868 6.58775 11.77 6.57375C8.2605 6.21589 5.01085 4.56129 2.65699 1.93375C2.54999 1.81275 2.49299 1.81275 2.40599 1.94375C1.93256 2.8177 1.75354 3.82101 1.89549 4.80477C2.03744 5.78852 2.49281 6.70029 3.194 7.40475C3.372 7.57375 3.55599 7.74275 3.75299 7.89675C3.14051 7.85081 2.54327 7.68357 1.996 7.40475C1.889 7.33675 1.83499 7.37575 1.82699 7.49675C1.81937 7.67125 1.82875 7.84607 1.85499 8.01875C1.96081 8.84114 2.2835 9.62058 2.78996 10.2771C3.29641 10.9336 3.96841 11.4436 4.737 11.7548C4.92414 11.8367 5.1201 11.8967 5.32099 11.9338C4.75329 12.0473 4.17061 12.0652 3.597 11.9867C3.471 11.9627 3.422 12.0257 3.471 12.1467C3.7659 12.9194 4.25351 13.6037 4.88746 14.1347C5.52142 14.6658 6.28065 15.0259 7.093 15.1807C7.257 15.2098 7.41999 15.2098 7.58499 15.2488C7.57499 15.2628 7.566 15.2627 7.556 15.2778C6.85245 15.9126 6.0024 16.3631 5.082 16.5888C3.87837 17.0184 2.59602 17.1825 1.32299 17.0697C1.12299 17.0408 1.079 17.0417 1.023 17.0697C0.966998 17.0977 1.016 17.1528 1.081 17.2048C1.338 17.3738 1.59799 17.5238 1.86299 17.6698C2.66199 18.0946 3.50454 18.4319 4.376 18.6758C6.61798 19.35 8.99765 19.4242 11.2773 18.891C13.5569 18.3577 15.6568 17.2356 17.367 15.6368C20.03 12.9918 20.967 9.34375 20.967 5.69175C20.967 5.54875 21.136 5.46975 21.237 5.39175C21.912 4.86759 22.5072 4.24812 23.004 3.55275C23.0822 3.45225 23.1238 3.32809 23.122 3.20075V3.18075C23.119 3.12475 23.118 3.14275 23.028 3.18075Z" fill="white"/>
</svg>


