<svg width="22" height="21" viewBox="0 0 22 21" fill="none" xmlns="http://www.w3.org/2000/svg">
<path d="M16.377 3.59082C16.0643 3.59082 15.7644 3.71504 15.5433 3.93614C15.3222 4.15725 15.198 4.45713 15.198 4.76982C15.1979 4.92473 15.2283 5.07815 15.2875 5.22131C15.3467 5.36447 15.4335 5.49456 15.543 5.60415C15.6525 5.71373 15.7825 5.80066 15.9256 5.85998C16.0687 5.91929 16.2221 5.94982 16.377 5.94982C16.6897 5.94982 16.9896 5.82561 17.2107 5.6045C17.4318 5.38339 17.556 5.08351 17.556 4.77082C17.5561 4.61591 17.5257 4.46249 17.4665 4.31933C17.4074 4.17617 17.3205 4.04608 17.211 3.93649C17.1015 3.82691 16.9715 3.73997 16.8284 3.68066C16.6853 3.62135 16.5319 3.59082 16.377 3.59082V3.59082Z" fill="white"/>
<path d="M11.136 5.10303C9.82319 5.10435 8.56455 5.62637 7.63618 6.55454C6.70782 7.48272 6.18555 8.74126 6.18396 10.054C6.18555 11.3669 6.70779 12.6255 7.63612 13.5539C8.56446 14.4822 9.8231 15.0044 11.136 15.006C12.4488 15.0044 13.7075 14.4822 14.6358 13.5539C15.5641 12.6255 16.0864 11.3669 16.088 10.054C16.0864 8.74126 15.5641 7.48272 14.6357 6.55454C13.7074 5.62637 12.4487 5.10435 11.136 5.10303V5.10303ZM11.136 13.226C10.2948 13.2252 9.48826 12.8906 8.89354 12.2957C8.29882 11.7008 7.96449 10.8942 7.96396 10.053C7.96475 9.21201 8.2992 8.40566 8.8939 7.81096C9.48859 7.21627 10.2949 6.88182 11.136 6.88103C11.977 6.88182 12.7833 7.21627 13.378 7.81096C13.9727 8.40566 14.3072 9.21201 14.308 10.053C14.3074 10.8942 13.9731 11.7008 13.3784 12.2957C12.7837 12.8906 11.9772 13.2252 11.136 13.226V13.226Z" fill="white"/>
<path d="M15.068 20.108H7.03595C5.43487 20.1061 3.89991 19.4693 2.76778 18.3371C1.63565 17.205 0.998801 15.67 0.996948 14.069V6.04098C0.998536 4.43973 1.63527 2.90451 2.76743 1.77216C3.89959 0.639813 5.4347 0.00282968 7.03595 0.000976562H15.0639C16.665 0.0028292 18.2 0.639674 19.3321 1.7718C20.4642 2.90394 21.1011 4.4389 21.1029 6.03998V14.068C21.1014 15.6685 20.4652 17.2032 19.3339 18.3354C18.2026 19.4676 16.6685 20.1051 15.068 20.108ZM7.03595 1.89297C5.9365 1.8943 4.88246 2.33164 4.10504 3.10907C3.32761 3.88649 2.89027 4.94053 2.88895 6.03998V14.068C2.88868 15.1685 3.32532 16.224 4.10292 17.0028C4.88052 17.7815 5.93546 18.2197 7.03595 18.221H15.0639C16.1637 18.2199 17.2181 17.7827 17.9959 17.0053C18.7737 16.2279 19.2114 15.1737 19.2129 14.074V6.04597C19.2114 4.94626 18.7737 3.89208 17.9959 3.11465C17.2181 2.33722 16.1637 1.90003 15.0639 1.89898L7.03595 1.89297Z" fill="white"/>
</svg>


